<svg width="24" height="24" viewBox="0 0 24 24" fill="none" xmlns="http://www.w3.org/2000/svg">
<g id="Frame">
<path id="&#60;Compound Path&#62;" d="M11.79 0.75C9.45875 0.75 7.22298 1.67609 5.57453 3.32453C3.92609 4.97298 3 7.20875 3 9.54C3 15.66 11.0775 23.25 11.79 23.25C12.5025 23.25 20.58 15.66 20.58 9.54C20.58 7.20875 19.6539 4.97298 18.0055 3.32453C16.357 1.67609 14.1213 0.75 11.79 0.75ZM11.79 13.29C11.0483 13.29 10.3233 13.0701 9.70661 12.658C9.08993 12.246 8.60928 11.6603 8.32545 10.9751C8.04162 10.2898 7.96736 9.53584 8.11205 8.80841C8.25675 8.08098 8.6139 7.4128 9.13835 6.88835C9.6628 6.3639 10.331 6.00675 11.0584 5.86205C11.7858 5.71736 12.5398 5.79162 13.2251 6.07545C13.9103 6.35928 14.496 6.83993 14.908 7.45661C15.3201 8.0733 15.54 8.79832 15.54 9.54C15.54 10.5346 15.1449 11.4884 14.4417 12.1917C13.7384 12.8949 12.7846 13.29 11.79 13.29Z" fill="#231F20"/>
</g>
</svg>
