<svg width="17" height="16" viewBox="0 0 17 16" fill="none" xmlns="http://www.w3.org/2000/svg">
<g id="Frame">
<g id="Layer 2">
<path id="plus" d="M13.1665 7.33341H9.1665V3.33341C9.1665 3.1566 9.09627 2.98703 8.97124 2.86201C8.84622 2.73699 8.67665 2.66675 8.49984 2.66675C8.32303 2.66675 8.15346 2.73699 8.02843 2.86201C7.90341 2.98703 7.83317 3.1566 7.83317 3.33341V7.33341H3.83317C3.65636 7.33341 3.48679 7.40365 3.36177 7.52868C3.23674 7.6537 3.1665 7.82327 3.1665 8.00008C3.1665 8.17689 3.23674 8.34646 3.36177 8.47149C3.48679 8.59651 3.65636 8.66675 3.83317 8.66675H7.83317V12.6667C7.83317 12.8436 7.90341 13.0131 8.02843 13.1382C8.15346 13.2632 8.32303 13.3334 8.49984 13.3334C8.67665 13.3334 8.84622 13.2632 8.97124 13.1382C9.09627 13.0131 9.1665 12.8436 9.1665 12.6667V8.66675H13.1665C13.3433 8.66675 13.5129 8.59651 13.6379 8.47149C13.7629 8.34646 13.8332 8.17689 13.8332 8.00008C13.8332 7.82327 13.7629 7.6537 13.6379 7.52868C13.5129 7.40365 13.3433 7.33341 13.1665 7.33341Z" fill="#666666"/>
</g>
</g>
</svg>
