<svg width="32" height="32" viewBox="0 0 32 32" fill="none" xmlns="http://www.w3.org/2000/svg">
<g id="remix-icons/fill/logos/telegram-fill" clip-path="url(#clip0_1645_4266)">
<g id="Group">
<path id="Vector" d="M15.9998 29.3332C8.63584 29.3332 2.6665 23.3638 2.6665 15.9998C2.6665 8.63584 8.63584 2.6665 15.9998 2.6665C23.3638 2.6665 29.3332 8.63584 29.3332 15.9998C29.3332 23.3638 23.3638 29.3332 15.9998 29.3332ZM11.8532 17.5598L11.8705 17.5505L13.0305 21.3772C13.1798 21.7918 13.3852 21.8665 13.6345 21.8318C13.8852 21.7985 14.0172 21.6638 14.1812 21.5065L15.7652 19.9758L19.1652 22.4932C19.7865 22.8358 20.2332 22.6585 20.3878 21.9172L22.5972 11.4878C22.8412 10.5172 22.4145 10.1278 21.6612 10.4372L8.68384 15.4505C7.7985 15.8052 7.80384 16.3012 8.52384 16.5212L11.8532 17.5612V17.5598Z" fill="white"/>
</g>
</g>
<defs>
<clipPath id="clip0_1645_4266">
<rect width="32" height="32" fill="white"/>
</clipPath>
</defs>
</svg>
