<svg width="701" height="235" viewBox="0 0 701 235" fill="none" xmlns="http://www.w3.org/2000/svg">
<path fill-rule="evenodd" clip-rule="evenodd" d="M145.68 177.224L145.558 178.334C143.774 194.499 136.522 208.508 124.783 218.471C113.046 228.433 96.8801 234.303 77.3409 234.303C53.3208 234.303 33.9688 225.434 20.633 210.272C7.30971 195.125 0.0625 173.779 0.0625 148.928C0.0625 123.75 7.57961 102.325 20.9949 87.1805C34.4204 72.0243 53.6894 63.2329 77.0213 63.2329C114.621 63.2329 142.088 85.4784 145.559 119.102L145.672 120.205H112.76L112.586 119.421C109.269 104.494 97.2831 92.0795 77.554 92.0795C64.541 92.0795 53.7532 97.4541 46.1946 107.104C38.6179 116.776 34.2358 130.814 34.2358 148.182C34.2358 165.877 38.5418 180.183 46.0818 190.041C53.6013 199.873 64.3862 205.349 77.554 205.349C95.3281 205.349 108.649 195.209 112.588 178.001L112.766 177.224H145.68ZM144.564 178.224H113.562C109.514 195.909 95.7713 206.349 77.554 206.349C50.6009 206.349 33.2358 183.871 33.2358 148.182C33.2358 113.132 50.9205 91.0795 77.554 91.0795C97.7955 91.0795 110.153 103.864 113.562 119.205H144.564C144.529 118.87 144.492 118.537 144.453 118.205C140.608 85.7367 113.825 64.2329 77.0213 64.2329C30.892 64.2329 1.0625 98.963 1.0625 148.928C1.0625 198.253 29.8267 233.303 77.3409 233.303C115.607 233.303 140.521 210.563 144.446 179.224C144.488 178.892 144.527 178.559 144.564 178.224ZM303.736 210.761C290.227 225.758 270.878 234.303 247.556 234.303C224.233 234.303 204.884 225.758 191.375 210.761C177.875 195.774 170.277 174.425 170.277 148.928C170.277 123.272 177.874 101.843 191.374 86.8157C204.884 71.778 224.233 63.2329 247.556 63.2329C270.879 63.2329 290.228 71.778 303.737 86.8157C317.238 101.843 324.834 123.272 324.834 148.928C324.834 174.425 317.237 195.774 303.736 210.761ZM215.072 188.907C222.176 199.153 232.926 205.562 247.662 205.562C262.29 205.562 272.987 199.156 280.065 188.909C287.172 178.62 290.661 164.405 290.661 148.821C290.661 133.291 287.172 119.021 280.063 108.664C272.983 98.3491 262.285 91.8665 247.662 91.8665C232.93 91.8665 222.18 98.3515 215.074 108.666C207.94 119.021 204.451 133.291 204.451 148.821C204.451 164.405 207.94 178.619 215.072 188.907ZM463.113 231V129.751C463.113 118.051 459.888 108.836 454.121 102.556C448.365 96.2863 439.969 92.8253 429.383 92.8253C418.533 92.8253 409.272 96.472 402.722 103.241C396.172 110.01 392.244 119.997 392.244 132.841V231H358.39V65.3636H390.965V91.9971H391.339C399.183 74.5752 415.56 63.2329 440.249 63.2329C457.191 63.2329 471.406 68.6068 481.381 79.2082C491.349 89.8029 496.967 105.496 496.967 125.916V231H463.113ZM391.989 92.9971H389.965V66.3636H359.39V230H391.244V132.841C391.244 106.74 407.224 91.8253 429.383 91.8253C451.009 91.8253 464.113 105.994 464.113 129.751V230H495.967V125.916C495.967 85.4332 473.701 64.2329 440.249 64.2329C415.64 64.2329 399.553 75.6321 391.989 92.9971ZM617.563 65.3636V92.9318H582.3V231H548.34V92.9318H523.092V65.3636H548.34V47.4005C548.34 31.7909 554.124 20.052 563.272 12.23C572.399 4.42644 584.791 0.590881 597.92 0.590881C610.947 0.590881 620.336 3.28212 624.909 5.0243L625.77 5.35211L617.77 33.0072L616.79 32.6921C613.832 31.7414 609.265 30.2898 602.82 30.2898C595.2 30.2898 590.144 32.2189 586.968 35.715C583.774 39.231 582.3 44.5273 582.3 51.6619V65.3636H617.563ZM616.143 31.4363C613.15 30.496 608.76 29.2898 602.82 29.2898C587.266 29.2898 581.3 37.1733 581.3 51.6619V66.3636H616.563V91.9318H581.3V230H549.34V91.9318H524.092V66.3636H549.34V47.4005C549.34 16.7187 572.032 1.59088 597.92 1.59088C610.81 1.59088 620.079 4.25425 624.553 5.95879L617.096 31.74C616.796 31.6435 616.478 31.5416 616.143 31.4363ZM782.942 188.3L782.656 189.353C775.265 216.528 749.53 234.303 713.509 234.303C689.138 234.303 669.388 225.903 655.736 211.007C642.094 196.121 634.633 174.846 634.633 149.247C634.633 123.909 642.203 102.406 655.604 87.2218C669.015 72.0267 688.203 63.2329 711.272 63.2329C730.011 63.2329 748.393 69.077 762.095 82.4675C775.806 95.8669 784.715 116.71 784.715 146.477V158.77H668.414C669.011 173.854 673.707 185.547 681.415 193.509C689.292 201.645 700.415 205.989 713.829 205.989C731.628 205.989 745.032 198.274 750.605 183.309L750.897 182.525L782.942 188.3ZM667.413 158.77C668.622 189.678 686.846 206.989 713.829 206.989C731.94 206.989 745.789 199.105 751.542 183.658L781.691 189.091C781.603 189.415 781.512 189.737 781.419 190.058C773.831 216.149 748.764 233.303 713.509 233.303C665.249 233.303 635.633 200.064 635.633 149.247C635.633 98.963 665.675 64.2329 711.272 64.2329C748.346 64.2329 783.715 87.3508 783.715 146.477V157.77H667.38C667.389 158.105 667.4 158.438 667.413 158.77ZM667.487 133.906H752.501C752.499 133.572 752.495 133.238 752.488 132.906C751.96 108.384 735.871 90.5469 711.485 90.5469C685.97 90.5469 669.251 110.107 667.551 132.906C667.526 133.239 667.505 133.572 667.487 133.906ZM668.554 132.906H751.488C751.227 121.031 747.255 110.815 740.488 103.518C733.538 96.0245 723.582 91.5469 711.485 91.5469C686.607 91.5469 670.251 110.572 668.554 132.906ZM818.058 231V65.3636H850.846V91.3414C857.156 73.7284 873.79 62.9133 893.099 62.9133C897.173 62.9133 903.506 63.2339 906.761 63.6679L907.629 63.7836V96.4612L906.349 96.0878C903.901 95.3737 896.54 94.2102 890.01 94.2102C867.918 94.2102 851.912 109.267 851.912 130.071V231H818.058ZM905.629 94.8716C902.461 94.1412 895.897 93.2102 890.01 93.2102C867.424 93.2102 850.912 108.658 850.912 130.071V230H819.058V66.3636H849.846V92.3579H851.551C857.517 74.7798 873.923 63.9133 893.099 63.9133C897.147 63.9133 903.433 64.2329 906.629 64.6591V95.1278C906.351 95.0468 906.015 94.9607 905.629 94.8716ZM1068.29 188.3L1068.01 189.353C1060.62 216.528 1034.88 234.303 998.861 234.303C974.49 234.303 954.739 225.903 941.088 211.007C927.446 196.121 919.984 174.846 919.984 149.247C919.984 123.909 927.555 102.406 940.956 87.2218C954.366 72.0267 973.555 63.2329 996.624 63.2329C1015.36 63.2329 1033.74 69.077 1047.45 82.4675C1061.16 95.8669 1070.07 116.71 1070.07 146.477V158.77H953.765C954.363 173.854 959.058 185.547 966.767 193.509C974.644 201.645 985.767 205.989 999.18 205.989C1016.98 205.989 1030.38 198.274 1035.96 183.309L1036.25 182.525L1068.29 188.3ZM952.765 158.77C953.974 189.678 972.197 206.989 999.18 206.989C1017.29 206.989 1031.14 199.105 1036.89 183.658L1067.04 189.091C1066.95 189.415 1066.86 189.737 1066.77 190.058C1059.18 216.149 1034.12 233.303 998.861 233.303C950.601 233.303 920.984 200.064 920.984 149.247C920.984 98.963 951.027 64.2329 996.624 64.2329C1033.7 64.2329 1069.07 87.3508 1069.07 146.477V157.77H952.732C952.741 158.105 952.752 158.438 952.765 158.77ZM952.838 133.906H1037.85C1037.85 133.572 1037.85 133.238 1037.84 132.906C1037.31 108.384 1021.22 90.5469 996.837 90.5469C971.321 90.5469 954.602 110.107 952.903 132.906C952.878 133.239 952.856 133.572 952.838 133.906ZM953.906 132.906H1036.84C1036.58 121.031 1032.61 110.815 1025.84 103.518C1018.89 96.0245 1008.93 91.5469 996.837 91.5469C971.958 91.5469 955.603 110.572 953.906 132.906ZM1208.13 231V129.751C1208.13 118.051 1204.91 108.836 1199.14 102.556C1193.38 96.2863 1184.99 92.8253 1174.4 92.8253C1163.55 92.8253 1154.29 96.472 1147.74 103.241C1141.19 110.01 1137.26 119.997 1137.26 132.841V231H1103.41V65.3636H1135.98V91.9971H1136.36C1144.2 74.5752 1160.58 63.2329 1185.27 63.2329C1202.21 63.2329 1216.43 68.6068 1226.4 79.2082C1236.37 89.8029 1241.99 105.496 1241.99 125.916V231H1208.13ZM1137.01 92.9971H1134.98V66.3636H1104.41V230H1136.26V132.841C1136.26 106.74 1152.24 91.8253 1174.4 91.8253C1196.03 91.8253 1209.13 105.994 1209.13 129.751V230H1240.99V125.916C1240.99 85.4332 1218.72 64.2329 1185.27 64.2329C1160.66 64.2329 1144.57 75.6321 1137.01 92.9971ZM1420.97 177.224L1420.85 178.334C1419.07 194.499 1411.81 208.508 1400.08 218.471C1388.34 228.433 1372.17 234.303 1352.63 234.303C1328.61 234.303 1309.26 225.434 1295.93 210.272C1282.6 195.125 1275.36 173.779 1275.36 148.928C1275.36 123.75 1282.87 102.325 1296.29 87.1805C1309.71 72.0243 1328.98 63.2329 1352.31 63.2329C1389.91 63.2329 1417.38 85.4784 1420.85 119.102L1420.97 120.205H1388.05L1387.88 119.421C1384.56 104.494 1372.58 92.0795 1352.85 92.0795C1339.83 92.0795 1329.05 97.4541 1321.49 107.104C1313.91 116.776 1309.53 130.814 1309.53 148.182C1309.53 165.877 1313.83 180.183 1321.37 190.041C1328.89 199.873 1339.68 205.349 1352.85 205.349C1370.62 205.349 1383.94 195.209 1387.88 178.001L1388.06 177.224H1420.97ZM1419.86 178.224H1388.86C1384.81 195.909 1371.06 206.349 1352.85 206.349C1325.89 206.349 1308.53 183.871 1308.53 148.182C1308.53 113.132 1326.21 91.0795 1352.85 91.0795C1373.09 91.0795 1385.45 103.864 1388.86 119.205H1419.86C1419.82 118.87 1419.79 118.537 1419.75 118.205C1415.9 85.7367 1389.12 64.2329 1352.31 64.2329C1306.19 64.2329 1276.36 98.963 1276.36 148.928C1276.36 198.253 1305.12 233.303 1352.63 233.303C1390.9 233.303 1415.81 210.563 1419.74 179.224C1419.78 178.892 1419.82 178.559 1419.86 178.224ZM1593.88 188.3L1593.59 189.353C1586.2 216.528 1560.47 234.303 1524.45 234.303C1500.08 234.303 1480.32 225.903 1466.67 211.007C1453.03 196.121 1445.57 174.846 1445.57 149.247C1445.57 123.909 1453.14 102.406 1466.54 87.2218C1479.95 72.0267 1499.14 63.2329 1522.21 63.2329C1540.95 63.2329 1559.33 69.077 1573.03 82.4675C1586.74 95.8669 1595.65 116.71 1595.65 146.477V158.77H1479.35C1479.95 173.854 1484.64 185.547 1492.35 193.509C1500.23 201.645 1511.35 205.989 1524.77 205.989C1542.57 205.989 1555.97 198.274 1561.54 183.309L1561.83 182.525L1593.88 188.3ZM1478.35 158.77C1479.56 189.678 1497.78 206.989 1524.77 206.989C1542.88 206.989 1556.73 199.105 1562.48 183.658L1592.63 189.091C1592.54 189.415 1592.45 189.737 1592.36 190.058C1584.77 216.149 1559.7 233.303 1524.45 233.303C1476.19 233.303 1446.57 200.064 1446.57 149.247C1446.57 98.963 1476.61 64.2329 1522.21 64.2329C1559.28 64.2329 1594.65 87.3508 1594.65 146.477V157.77H1478.32C1478.33 158.105 1478.34 158.438 1478.35 158.77ZM1478.42 133.906H1563.44C1563.44 133.572 1563.43 133.238 1563.43 132.906C1562.9 108.384 1546.81 90.5469 1522.42 90.5469C1496.91 90.5469 1480.19 110.107 1478.49 132.906C1478.46 133.239 1478.44 133.572 1478.42 133.906ZM1479.49 132.906H1562.43C1562.17 121.031 1558.19 110.815 1551.43 103.518C1544.48 96.0245 1534.52 91.5469 1522.42 91.5469C1497.54 91.5469 1481.19 110.572 1479.49 132.906ZM323.834 148.928C323.834 199.531 293.685 233.303 247.556 233.303C201.426 233.303 171.277 199.531 171.277 148.928C171.277 98.0042 201.426 64.2329 247.556 64.2329C293.685 64.2329 323.834 98.0042 323.834 148.928ZM203.451 148.821C203.451 180.249 217.513 206.562 247.662 206.562C277.598 206.562 291.661 180.249 291.661 148.821C291.661 117.5 277.598 90.8665 247.662 90.8665C217.513 90.8665 203.451 117.5 203.451 148.821Z" fill="#3E3E46"/>
</svg>
