<svg width="20" height="20" viewBox="0 0 20 20" fill="none" xmlns="http://www.w3.org/2000/svg">
<path d="M10 20C4.47701 20 1.14441e-05 15.523 1.14441e-05 10C1.14441e-05 4.477 4.47701 0 10 0C15.523 0 20 4.477 20 10C20 15.523 15.523 20 10 20ZM6.89001 11.17L6.90301 11.163L7.77301 14.033C7.88501 14.344 8.03901 14.4 8.22601 14.374C8.41401 14.349 8.51301 14.248 8.63601 14.13L9.82401 12.982L12.374 14.87C12.84 15.127 13.175 14.994 13.291 14.438L14.948 6.616C15.131 5.888 14.811 5.596 14.246 5.828L4.51301 9.588C3.84901 9.854 3.85301 10.226 4.39301 10.391L6.89001 11.171V11.17Z" fill="#0D0D17"/>
</svg>
