<svg width="154" height="26" viewBox="0 0 154 26" fill="none" xmlns="http://www.w3.org/2000/svg">
<g id="EDP">
<g id="logo edp">
<path id="Fill 1" fill-rule="evenodd" clip-rule="evenodd" d="M9.91759 9.9166C11.2487 8.58546 13.2296 8.30834 14.8369 9.07499L9.07598 14.8359C8.30901 13.2286 8.58645 11.2477 9.91759 9.9166ZM17.1767 13.9944C16.9976 14.7415 16.6167 15.4499 16.0333 16.0333C14.7021 17.3641 12.7213 17.6415 11.114 16.8749L13.9944 13.9944L18.989 8.99986C18.7266 8.60356 18.4213 8.22713 18.0721 7.87792C15.257 5.06283 10.693 5.06283 7.87792 7.87792C5.06283 10.693 5.06283 15.257 7.87792 18.0721C10.693 20.8872 15.257 20.8872 18.0721 18.0721C19.2194 16.9249 19.8909 15.4861 20.1029 13.9944H17.1767Z" fill="white"/>
<path id="Fill 3" fill-rule="evenodd" clip-rule="evenodd" d="M12.9755 23.0666C7.402 23.0666 2.88382 18.5485 2.88382 12.975C2.88382 7.40147 7.402 2.88329 12.9755 2.88329C18.549 2.88329 23.0672 7.40147 23.0672 12.975C23.0672 18.5485 18.549 23.0666 12.9755 23.0666ZM0 14.4169V25.9503H2.88334V21.1274C5.26209 24.0684 8.89797 25.9503 12.975 25.9503C20.1407 25.9503 25.95 20.1413 25.95 12.9753C25.95 5.80921 20.1407 0.000244141 12.975 0.000244141C5.80896 0.000244141 0 5.80921 0 12.9753" fill="white"/>
<path id="Fill 5" fill-rule="evenodd" clip-rule="evenodd" d="M44.4533 5.75366V8.50084H37.4478V11.5818H43.6488V14.329H37.4478V17.4491H44.7279V20.1963H34.6025V5.75366H44.4533Z" fill="white"/>
<path id="Fill 7" fill-rule="evenodd" clip-rule="evenodd" d="M51.8882 17.449C53.3664 17.449 54.5374 17.0697 55.4008 16.3107C56.2642 15.5524 56.696 14.4599 56.696 13.0337C56.696 11.8829 56.457 10.9669 55.9797 10.2868C55.502 9.60665 54.9462 9.1357 54.3115 8.87364C53.6769 8.61222 53.0784 8.48119 52.5162 8.48119H50.2005V17.449H51.8882ZM47.354 5.75366H51.671C53.5157 5.75366 55.033 6.11023 56.2238 6.82338C57.414 7.53653 58.2809 8.45887 58.8236 9.5901C59.3663 10.7217 59.638 11.9352 59.638 13.2302C59.638 14.617 59.3109 15.8402 58.657 16.8997C58.0025 17.9595 57.1231 18.7735 56.0178 19.3428C54.9119 19.9118 53.6986 20.1963 52.3774 20.1963H47.354V5.75366Z" fill="white"/>
<path id="Fill 9" fill-rule="evenodd" clip-rule="evenodd" d="M65.1716 16.1734C65.4461 16.5924 65.8123 16.9324 66.2705 17.1938C66.7283 17.4555 67.2188 17.5862 67.7422 17.5862C68.3045 17.5862 68.8216 17.4555 69.2925 17.1938C69.7635 16.9324 70.1329 16.5924 70.401 16.1734C70.6692 15.755 70.8031 15.3167 70.8031 14.8586V5.75366H73.6095V14.9175C73.6095 15.9511 73.3478 16.8833 72.8249 17.7141C72.3011 18.5448 71.5915 19.1922 70.6954 19.6565C69.7993 20.121 68.8148 20.3533 67.7422 20.3533C66.6693 20.3533 65.6883 20.121 64.7987 19.6565C63.909 19.1922 63.2058 18.5448 62.689 17.7141C62.1723 16.8833 61.9141 15.9511 61.9141 14.9175V5.75366H64.7596V14.8586C64.7596 15.3167 64.897 15.755 65.1716 16.1734Z" fill="white"/>
<mask id="mask0_1645_3338" style="mask-type:luminance" maskUnits="userSpaceOnUse" x="0" y="0" width="154" height="26">
<path id="Clip 12" fill-rule="evenodd" clip-rule="evenodd" d="M0 26H153.014V0H0V26Z" fill="white"/>
</mask>
<g mask="url(#mask0_1645_3338)">
<path id="Fill 11" fill-rule="evenodd" clip-rule="evenodd" d="M76.8633 14.2408H82.8875V11.8662H76.8633V14.2408Z" fill="white"/>
<path id="Fill 13" fill-rule="evenodd" clip-rule="evenodd" d="M92.2301 12.4942C92.5572 12.2523 92.7924 11.9675 92.9366 11.6404C93.0804 11.3136 93.1525 10.9997 93.1525 10.6989C93.1525 10.1885 93.0019 9.69481 92.7011 9.21714C92.3999 8.73979 91.8181 8.50079 90.9547 8.50079H88.9137V12.8572H90.9349C91.4712 12.8572 91.903 12.7364 92.2301 12.4942ZM94.5454 7.05853C95.5132 7.92898 95.9973 9.11595 95.9973 10.6201C95.9973 11.4838 95.8304 12.2915 95.4969 13.0437C95.1634 13.7959 94.6203 14.4142 93.8681 14.898C93.1159 15.3821 92.1445 15.6243 90.9543 15.6243H88.9133V20.1963H86.0684V5.75366H90.444C92.2099 5.75366 93.5769 6.18873 94.5454 7.05853Z" fill="white"/>
<path id="Fill 14" fill-rule="evenodd" clip-rule="evenodd" d="M100.915 12.8572H102.936C103.708 12.8572 104.27 12.6313 104.623 12.1802C104.977 11.7288 105.153 11.2416 105.153 10.7181C105.153 10.1949 105.003 9.69481 104.702 9.21714C104.401 8.73947 103.819 8.50079 102.956 8.50079H100.915V12.8572ZM105.86 20.1963L102.818 15.6044H100.915V20.1963H98.0698V5.75366H102.445C104.238 5.75366 105.628 6.18873 106.616 7.05853C107.603 7.92866 108.097 9.11595 108.097 10.6201C108.097 11.5098 107.911 12.3437 107.538 13.1222C107.165 13.9007 106.593 14.5123 105.821 14.957L109.176 20.1963H105.86Z" fill="white"/>
<path id="Fill 15" fill-rule="evenodd" clip-rule="evenodd" d="M113.633 15.3099C114.032 16.0163 114.575 16.5757 115.262 16.9877C115.949 17.3997 116.711 17.606 117.548 17.606C118.359 17.606 119.098 17.3997 119.766 16.9877C120.433 16.5757 120.956 16.0195 121.335 15.3198C121.715 14.6201 121.904 13.8449 121.904 12.9943C121.904 12.1309 121.708 11.346 121.316 10.6395C120.923 9.93313 120.39 9.37376 119.716 8.96176C119.043 8.54976 118.294 8.34377 117.47 8.34377C116.645 8.34377 115.896 8.54976 115.223 8.96176C114.549 9.37376 114.016 9.93313 113.624 10.6395C113.231 11.346 113.035 12.1309 113.035 12.9943C113.035 13.8317 113.234 14.6035 113.633 15.3099ZM111.082 9.32483C111.743 8.18688 112.639 7.28087 113.771 6.60713C114.902 5.93339 116.129 5.59668 117.45 5.59668C118.771 5.59668 119.998 5.93339 121.129 6.60713C122.261 7.28087 123.163 8.18688 123.837 9.32483C124.511 10.4631 124.848 11.6863 124.848 12.9944C124.848 14.3287 124.511 15.5586 123.837 16.6837C123.163 17.8089 122.261 18.7018 121.129 19.362C119.998 20.023 118.771 20.3533 117.45 20.3533C116.116 20.3533 114.886 20.023 113.761 19.362C112.636 18.7018 111.743 17.8089 111.082 16.6837C110.422 15.5586 110.091 14.3287 110.091 12.9944C110.091 11.6863 110.422 10.4631 111.082 9.32483Z" fill="white"/>
<path id="Fill 16" fill-rule="evenodd" clip-rule="evenodd" d="M136.341 5.75366V8.50084H130.16V11.7779H135.517V14.5251H130.16V20.1963H127.314V5.75366H136.341Z" fill="white"/>
<path id="Fill 17" fill-rule="evenodd" clip-rule="evenodd" d="M138.437 20.1965H141.282V5.75391H138.437V20.1965Z" fill="white"/>
<path id="Fill 18" fill-rule="evenodd" clip-rule="evenodd" d="M153.013 5.75366V8.50084H149.501V20.1963H146.656V8.50084H143.28V5.75366H153.013Z" fill="white"/>
</g>
</g>
</g>
</svg>
