<svg width="126" height="26" viewBox="0 0 126 26" fill="none" xmlns="http://www.w3.org/2000/svg">
<g id="everad">
<g id="logo">
<path id="Fill 1" fill-rule="evenodd" clip-rule="evenodd" d="M19.2149 0L0 11.1483V14.864L19.2149 26L28.8108 20.4318V16.7157L19.2149 22.2839L3.19876 13L19.2149 3.71609V0ZM9.60845 13L12.8064 14.864L22.4145 9.28395V5.56827L9.60845 13ZM16.0049 16.7157L19.215 18.5801L25.6125 14.864V11.1483L16.0049 16.7157Z" fill="white"/>
<g id="Group 4">
<mask id="mask0_1645_3320" style="mask-type:luminance" maskUnits="userSpaceOnUse" x="37" y="6" width="89" height="15">
<path id="Clip 3" fill-rule="evenodd" clip-rule="evenodd" d="M37.4805 6.4314H125.544V20.0811H37.4805V6.4314Z" fill="white"/>
</mask>
<g mask="url(#mask0_1645_3320)">
<path id="Fill 2" fill-rule="evenodd" clip-rule="evenodd" d="M118.283 17.5229H115.801V8.98925H118.283C121.093 8.98925 122.569 10.8516 122.569 13.2665C122.569 15.579 120.99 17.5229 118.283 17.5229ZM118.282 6.43141H112.888V20.0811H118.282C122.569 20.0811 125.543 17.3795 125.543 13.2665C125.543 9.15308 122.569 6.43141 118.282 6.43141ZM100.338 15.2107L102.471 9.33731L104.605 15.2107H100.338ZM100.645 6.43141L95.3533 20.0811H98.676L99.5377 17.7686H105.404L106.245 20.0811H109.568L104.296 6.43141H100.645ZM87.5413 12.673H84.4851V8.98925H87.5413C88.7105 8.98925 89.5927 9.68513 89.5927 10.8311C89.5927 11.9771 88.7105 12.673 87.5413 12.673ZM92.566 10.8311C92.566 8.29377 90.8226 6.43141 87.9716 6.43141H81.5717V20.0811H84.4843V15.2309H86.6177L89.3045 20.0811H92.6481L89.571 14.8831C91.048 14.535 92.566 13.246 92.566 10.8311ZM67.5646 20.0811H77.2461V17.5229H70.4775V14.433H77.1028V11.8747H70.4775V8.98925H77.2461V6.43141H67.5646V20.0811ZM57.1478 16.9294L53.3534 6.43141H50.0303L55.3222 20.0811H58.9733L64.2443 6.43141H60.922L57.1478 16.9294ZM37.4805 20.0811H47.1616V17.5229H40.3931V14.433H47.0179V11.8747H40.3931V8.98923H47.1616V6.4314H37.4805V20.0811Z" fill="white"/>
</g>
</g>
</g>
</g>
</svg>
