<svg width="130" height="30" viewBox="0 0 130 30" fill="none" xmlns="http://www.w3.org/2000/svg">
<g id="PDL">
<g id="pdl-profit">
<path id="Vector" d="M8.69156 6.25269C6.07645 6.25269 3.7369 7.42153 2.14351 9.26234L4.29031 11.726C5.28898 10.3692 6.88582 9.48599 8.69156 9.48599C11.7188 9.48599 14.173 11.9578 14.173 15.0069C14.173 18.056 11.7188 20.5278 8.69156 20.5278C6.65784 20.5278 4.88684 19.4097 3.94085 17.7531L0 21.2368V30H3.20999V21.7977C4.70577 23.0239 6.61258 23.7612 8.69139 23.7612C13.4917 23.7612 17.383 19.8418 17.383 15.0069C17.3831 10.172 13.4918 6.25269 8.69156 6.25269Z" fill="white"/>
<path id="Vector_2" d="M27.6909 23.7473C30.306 23.7473 32.6456 22.5784 34.239 20.7376L32.0922 18.2739C31.0935 19.6308 29.4966 20.514 27.6909 20.514C24.6636 20.514 22.2095 18.0422 22.2095 14.993C22.2095 11.9439 24.6636 9.47212 27.6909 9.47212C29.7246 9.47212 31.4956 10.5902 32.4416 12.2468L36.3825 8.76319V0H33.1725V8.20231C31.6767 6.9761 29.7699 6.23881 27.6911 6.23881C22.8908 6.23881 18.9995 10.1582 18.9995 14.993C18.9993 19.8278 22.8906 23.7473 27.6909 23.7473Z" fill="white"/>
<path id="Vector_3" d="M41.2105 0H38.0005V23.4052H41.2105V0Z" fill="white"/>
<path id="Vector_4" d="M49.1161 13.1494H44.2666V16.3826H49.1161V13.1494Z" fill="white"/>
<path id="Vector_5" d="M8.58022 10.9854C8.32278 10.9854 8.07142 11.0109 7.82747 11.0581V11.966C6.93827 12.1759 6.39918 12.721 6.39918 13.491C6.39918 15.2234 9.52835 15.6927 9.52835 16.7764C9.52835 17.0837 9.29659 17.3653 8.75191 17.3653C8.07965 17.3653 7.80163 16.9471 7.61612 16.2473L6.20215 16.4352C6.43177 17.3072 6.83095 18.0062 7.82747 18.2597V18.9413C8.07142 18.9885 8.32294 19.0141 8.58022 19.0141C8.83684 19.0141 9.0877 18.9885 9.33099 18.9416V18.3202C10.4213 18.1589 11.116 17.5465 11.116 16.7084C11.116 14.9591 7.98681 14.4897 7.98681 13.4142C7.98681 13.0986 8.23027 12.9023 8.64738 12.9023C9.18054 12.9023 9.43535 13.2435 9.63239 13.9007L11.0696 13.6361C10.7873 12.7401 10.3231 12.105 9.33099 11.9239V11.0576C9.0877 11.0109 8.83701 10.9854 8.58022 10.9854Z" fill="white"/>
<g id="Group">
<path id="Vector_6" d="M58.7917 6.25244C56.1764 6.25244 53.837 7.42129 52.2436 9.26209L54.3904 11.7258C55.3891 10.3689 56.9859 9.48575 58.7917 9.48575C61.8189 9.48575 64.2731 11.9576 64.2731 15.0067C64.2731 18.0558 61.8189 20.5276 58.7917 20.5276C56.7579 20.5276 54.9869 19.4095 54.0409 17.7527L50.1001 21.2364V29.9996H53.3103V21.7973C54.806 23.0235 56.7128 23.7607 58.7917 23.7607C63.5919 23.7607 67.4832 19.8414 67.4832 15.0065C67.4832 10.1718 63.5919 6.25244 58.7917 6.25244Z" fill="white"/>
<path id="Vector_7" d="M112.046 6.25244L112.05 23.4051H115.261L115.256 6.25244H112.046Z" fill="white"/>
<path id="Vector_8" d="M112.046 0.835205L112.05 4.07282H115.261L115.256 0.835205H112.046Z" fill="white"/>
<path id="Vector_9" d="M79.5404 9.47655L79.5359 6.23877H78.3305C76.2586 6.24258 74.3576 6.97771 72.8659 8.20011L72.8654 6.25253H69.6553L69.6576 14.9035C69.6572 14.9333 69.6553 14.9627 69.6553 14.9927V23.4049H69.6597V23.4054H72.8699L72.8694 21.6524L72.8847 14.9927C72.8847 11.9598 75.3215 9.50043 78.3305 9.49147L79.5404 9.47655Z" fill="white"/>
<path id="Vector_10" d="M88.2316 6.23901C83.4313 6.23901 79.54 10.1584 79.54 14.9932C79.54 19.8281 83.4313 23.7475 88.2316 23.7475C93.0319 23.7475 96.9232 19.8281 96.9232 14.9932C96.9232 10.1584 93.0317 6.23901 88.2316 6.23901ZM88.2316 20.4948C85.2149 20.4948 82.7693 18.0316 82.7693 14.9931C82.7693 11.9546 85.2149 9.49139 88.2316 9.49139C91.2483 9.49139 93.6939 11.9546 93.6939 14.9931C93.6939 18.0316 91.2483 20.4948 88.2316 20.4948Z" fill="white"/>
<path id="Vector_11" d="M129.091 23.4048L129.089 20.1671L125.877 20.1521C122.868 20.1432 120.431 17.6838 120.431 14.6509H120.412V9.35965H125.877V6.12651H120.412V0.835205H117.202V14.6511C117.202 19.4805 121.084 23.3959 125.877 23.4048H129.091Z" fill="white"/>
<path id="Vector_12" d="M110.213 4.07274L110.208 0.834961H106.998C102.206 0.843914 98.3232 4.75946 98.3232 9.5887V23.4046H101.533V12.7247H106.998V9.49138H101.555C101.607 6.50361 104.022 4.09645 106.998 4.08767L110.213 4.07274Z" fill="white"/>
</g>
</g>
</g>
</svg>
