<svg width="96" height="26" viewBox="0 0 96 26" fill="#FDFEFE" xmlns="http://www.w3.org/2000/svg">
<g id="Sempro">
<path d="M4.37981 13.8076C4.37981 14.5731 4.51051 15.2266 4.77191 15.7681C5.03331 16.3095 5.3974 16.7577 5.86419 17.1124C6.33098 17.4485 6.86312 17.7006 7.4606 17.8686C8.07676 18.018 8.7396 18.0927 9.44912 18.0927C10.2146 18.0927 10.8681 18.0086 11.4096 17.8406C11.9511 17.6539 12.3899 17.4205 12.726 17.1404C13.062 16.8603 13.3048 16.5429 13.4541 16.1882C13.6035 15.8147 13.6782 15.4413 13.6782 15.0679C13.6782 14.3024 13.5008 13.7422 13.1461 13.3875C12.81 13.014 12.4366 12.7526 12.0258 12.6032C11.3163 12.3418 10.4854 12.0991 9.53314 11.8751C8.59956 11.6323 7.44193 11.3243 6.06024 10.9508C5.20135 10.7268 4.4825 10.4374 3.90369 10.0826C3.34354 9.70917 2.89543 9.2984 2.55934 8.85028C2.22325 8.40217 1.98052 7.92604 1.83115 7.42191C1.70045 6.91778 1.6351 6.40432 1.6351 5.88152C1.6351 4.87326 1.84049 4.00503 2.25126 3.27684C2.6807 2.52999 3.24085 1.91383 3.93169 1.42837C4.62254 0.94291 5.40674 0.588151 6.2843 0.364093C7.16186 0.121364 8.04875 0 8.94499 0C9.99059 0 10.9708 0.140036 11.8857 0.420108C12.8193 0.681509 13.6315 1.08295 14.3224 1.62442C15.0319 2.16589 15.592 2.83806 16.0028 3.64094C16.4136 4.42514 16.619 5.34004 16.619 6.38565H13.1181C13.0247 5.09731 12.5859 4.19175 11.8017 3.66895C11.0175 3.12747 10.0186 2.85674 8.80495 2.85674C8.39418 2.85674 7.97407 2.90342 7.54462 2.99677C7.11518 3.07146 6.72308 3.21149 6.36832 3.41688C6.01356 3.60359 5.71482 3.865 5.47209 4.20108C5.24803 4.53717 5.136 4.95728 5.136 5.46141C5.136 6.17092 5.35073 6.73107 5.78017 7.14184C6.22829 7.53394 6.8071 7.83269 7.51662 8.03807C7.5913 8.05674 7.88071 8.14077 8.38484 8.29014C8.90764 8.42084 9.48646 8.57021 10.1213 8.73825C10.7561 8.9063 11.3723 9.07434 11.9698 9.24238C12.5859 9.39176 13.0247 9.50378 13.2861 9.57847C13.9396 9.78385 14.5091 10.0639 14.9945 10.4187C15.48 10.7734 15.8814 11.1842 16.1989 11.651C16.5349 12.0991 16.7777 12.5846 16.927 13.1074C17.0951 13.6302 17.1791 14.153 17.1791 14.6758C17.1791 15.7961 16.9457 16.7577 16.4789 17.5605C16.0308 18.3447 15.4333 18.9889 14.6865 19.493C13.9396 19.9972 13.0901 20.3612 12.1378 20.5853C11.1856 20.828 10.2146 20.9494 9.22506 20.9494C8.0861 20.9494 7.01249 20.8094 6.00423 20.5293C4.99597 20.2492 4.11841 19.8198 3.37155 19.241C2.62469 18.6621 2.0272 17.9246 1.57909 17.0284C1.13097 16.1135 0.897578 15.0399 0.878906 13.8076H4.37981Z" fill="#FDFEFE"/>
<path d="M28.8984 11.9591C28.861 11.455 28.749 10.9695 28.5623 10.5027C28.3943 10.0359 28.1515 9.63448 27.8341 9.2984C27.5354 8.94364 27.1619 8.66357 26.7138 8.45818C26.2844 8.23412 25.7989 8.12209 25.2574 8.12209C24.6973 8.12209 24.1838 8.22479 23.717 8.43017C23.2689 8.61689 22.8768 8.88762 22.5407 9.24238C22.2233 9.57847 21.9619 9.97991 21.7565 10.4467C21.5698 10.9135 21.4671 11.4176 21.4485 11.9591H28.8984ZM21.4485 14.0596C21.4485 14.6198 21.5231 15.1612 21.6725 15.684C21.8406 16.2068 22.0833 16.6643 22.4007 17.0564C22.7181 17.4485 23.1196 17.7659 23.605 18.0086C24.0905 18.2327 24.6693 18.3447 25.3415 18.3447C26.275 18.3447 27.0219 18.1487 27.582 17.7566C28.1609 17.3458 28.5903 16.739 28.8704 15.9361H31.8952C31.7271 16.7203 31.4377 17.4205 31.0269 18.0366C30.6162 18.6528 30.1214 19.1756 29.5425 19.6051C28.9637 20.0158 28.3102 20.3239 27.582 20.5293C26.8725 20.7534 26.1257 20.8654 25.3415 20.8654C24.2025 20.8654 23.1942 20.6787 22.3167 20.3052C21.4391 19.9318 20.6923 19.409 20.0761 18.7368C19.4786 18.0647 19.0212 17.2618 18.7038 16.3282C18.405 15.3946 18.2556 14.3677 18.2556 13.2474C18.2556 12.2205 18.4143 11.2496 18.7318 10.3347C19.0678 9.40109 19.5346 8.58888 20.1321 7.89804C20.7483 7.18852 21.4858 6.62838 22.3447 6.2176C23.2036 5.80683 24.1745 5.60144 25.2574 5.60144C26.3964 5.60144 27.414 5.84417 28.3102 6.32963C29.2251 6.79642 29.9813 7.42191 30.5788 8.20611C31.1763 8.99032 31.6057 9.89588 31.8671 10.9228C32.1472 11.9311 32.2219 12.9767 32.0912 14.0596H21.4485Z" fill="#FDFEFE"/>
<path d="M33.6782 5.99355H36.703V8.01007H36.787C37.0297 7.65531 37.2911 7.32856 37.5712 7.02981C37.8513 6.73107 38.1594 6.479 38.4954 6.27362C38.8502 6.06823 39.2516 5.90952 39.6998 5.79749C40.1479 5.66679 40.6613 5.60144 41.2402 5.60144C42.1177 5.60144 42.9299 5.79749 43.6768 6.18959C44.4423 6.5817 44.9838 7.18852 45.3012 8.01007C45.8427 7.26321 46.4682 6.67505 47.1777 6.24561C47.8872 5.81617 48.7741 5.60144 49.8384 5.60144C51.3694 5.60144 52.5551 5.97487 53.3953 6.72173C54.2542 7.46859 54.6836 8.71958 54.6836 10.4747V20.4733H51.4908V12.0151C51.4908 11.4363 51.4721 10.9135 51.4348 10.4467C51.3974 9.96124 51.2854 9.55046 51.0987 9.21438C50.9306 8.85962 50.6693 8.58888 50.3145 8.40217C49.9597 8.21545 49.4743 8.12209 48.8581 8.12209C47.7752 8.12209 46.991 8.45818 46.5055 9.13035C46.0201 9.80253 45.7773 10.7548 45.7773 11.9871V20.4733H42.5845V11.1749C42.5845 10.1666 42.3978 9.41043 42.0244 8.9063C41.6696 8.3835 41.0068 8.12209 40.0358 8.12209C39.6251 8.12209 39.2236 8.20612 38.8315 8.37416C38.4581 8.5422 38.122 8.78493 37.8233 9.10235C37.5432 9.41976 37.3098 9.81186 37.1231 10.2787C36.955 10.7454 36.871 11.2776 36.871 11.8751V20.4733H33.6782V5.99355Z" fill="#FDFEFE"/>
<path d="M57.2916 5.99355H60.3163V7.95405H60.3724C60.8205 7.11383 61.446 6.51635 62.2488 6.16159C63.0517 5.78816 63.9199 5.60144 64.8535 5.60144C65.9925 5.60144 66.9821 5.80683 67.8223 6.2176C68.6812 6.6097 69.3907 7.16051 69.9508 7.87003C70.511 8.56087 70.9311 9.37308 71.2112 10.3067C71.4912 11.2402 71.6313 12.2392 71.6313 13.3034C71.6313 14.2743 71.5006 15.2173 71.2392 16.1322C70.9964 17.0471 70.6137 17.8593 70.0909 18.5688C69.5867 19.2596 68.9426 19.8198 68.1584 20.2492C67.3742 20.66 66.4499 20.8654 65.3857 20.8654C64.9189 20.8654 64.4521 20.8187 63.9853 20.7253C63.5185 20.6507 63.0704 20.52 62.6409 20.3332C62.2115 20.1465 61.8101 19.9131 61.4366 19.6331C61.0819 19.3343 60.7831 18.9889 60.5404 18.5968H60.4844V25.8227H57.2916V5.99355ZM68.4384 13.2474C68.4384 12.5939 68.3544 11.9591 68.1864 11.3429C68.0183 10.7268 67.7663 10.1853 67.4302 9.71851C67.0941 9.23305 66.674 8.85028 66.1699 8.57021C65.6657 8.27147 65.0869 8.12209 64.4334 8.12209C63.0891 8.12209 62.0715 8.58888 61.3806 9.52245C60.7085 10.456 60.3724 11.6977 60.3724 13.2474C60.3724 13.9756 60.4564 14.6571 60.6244 15.2919C60.8111 15.9081 61.0819 16.4402 61.4366 16.8884C61.7914 17.3365 62.2115 17.6912 62.697 17.9526C63.2011 18.214 63.7799 18.3447 64.4334 18.3447C65.1616 18.3447 65.7778 18.1954 66.2819 17.8966C66.786 17.5979 67.1968 17.2151 67.5142 16.7483C67.8503 16.2629 68.0837 15.7214 68.2144 15.1239C68.3638 14.5077 68.4384 13.8822 68.4384 13.2474Z" fill="#FDFEFE"/>
<path d="M73.4889 5.99355H76.4857V8.79427H76.5417C76.6351 8.40217 76.8125 8.0194 77.0739 7.64597C77.3539 7.27254 77.6807 6.93646 78.0541 6.63771C78.4462 6.3203 78.8756 6.06823 79.3424 5.88152C79.8092 5.6948 80.2854 5.60144 80.7708 5.60144C81.1442 5.60144 81.3963 5.61078 81.527 5.62945C81.6764 5.64812 81.8258 5.66679 81.9751 5.68547V8.76626C81.7511 8.72892 81.5177 8.70091 81.2749 8.68224C81.0509 8.6449 80.8268 8.62622 80.6028 8.62622C80.0613 8.62622 79.5478 8.73825 79.0624 8.96231C78.5956 9.1677 78.1848 9.48511 77.8301 9.91456C77.4753 10.3253 77.1952 10.8388 76.9898 11.455C76.7844 12.0711 76.6818 12.7806 76.6818 13.5835V20.4733H73.4889V5.99355Z" fill="#FDFEFE"/>
<path d="M88.6404 20.8654C87.4828 20.8654 86.4465 20.6787 85.5316 20.3052C84.6354 19.9131 83.8698 19.381 83.235 18.7088C82.6188 18.0366 82.1427 17.2338 81.8066 16.3002C81.4892 15.3666 81.3305 14.3397 81.3305 13.2194C81.3305 12.1178 81.4892 11.1002 81.8066 10.1666C82.1427 9.23305 82.6188 8.43017 83.235 7.758C83.8698 7.08583 84.6354 6.56302 85.5316 6.18959C86.4465 5.79749 87.4828 5.60144 88.6404 5.60144C89.798 5.60144 90.825 5.79749 91.7212 6.18959C92.6361 6.56302 93.4016 7.08583 94.0178 7.758C94.6526 8.43017 95.1287 9.23305 95.4462 10.1666C95.7822 11.1002 95.9503 12.1178 95.9503 13.2194C95.9503 14.3397 95.7822 15.3666 95.4462 16.3002C95.1287 17.2338 94.6526 18.0366 94.0178 18.7088C93.4016 19.381 92.6361 19.9131 91.7212 20.3052C90.825 20.6787 89.798 20.8654 88.6404 20.8654ZM88.6404 18.3447C89.3499 18.3447 89.9661 18.1954 90.4889 17.8966C91.0117 17.5979 91.4411 17.2058 91.7772 16.7203C92.1133 16.2349 92.356 15.6934 92.5054 15.0959C92.6734 14.4797 92.7575 13.8542 92.7575 13.2194C92.7575 12.6032 92.6734 11.9871 92.5054 11.3709C92.356 10.7548 92.1133 10.2133 91.7772 9.74651C91.4411 9.26105 91.0117 8.86895 90.4889 8.57021C89.9661 8.27147 89.3499 8.12209 88.6404 8.12209C87.9309 8.12209 87.3147 8.27147 86.7919 8.57021C86.2691 8.86895 85.8397 9.26105 85.5036 9.74651C85.1675 10.2133 84.9154 10.7548 84.7474 11.3709C84.598 11.9871 84.5233 12.6032 84.5233 13.2194C84.5233 13.8542 84.598 14.4797 84.7474 15.0959C84.9154 15.6934 85.1675 16.2349 85.5036 16.7203C85.8397 17.2058 86.2691 17.5979 86.7919 17.8966C87.3147 18.1954 87.9309 18.3447 88.6404 18.3447Z" fill="#FDFEFE"/>
</g>
</svg>
