<svg width="131" height="30" viewBox="0 0 131 30" fill="none" xmlns="http://www.w3.org/2000/svg">
<g id="logo trio">
<path id="TRIONIKA" d="M45.7076 11.323H42.1143V9.61924H51.3146V11.323H47.7212V20.4614H45.7076V11.323ZM61.111 20.4614L58.8961 17.2862C58.8031 17.2965 58.6637 17.3017 58.4779 17.3017H56.0307V20.4614H54.0171V9.61924H58.4779C59.4175 9.61924 60.2358 9.77413 60.9328 10.0839C61.6298 10.3937 62.1642 10.8377 62.5359 11.4159C62.9077 11.9942 63.0935 12.6808 63.0935 13.4759C63.0935 14.2917 62.8947 14.9938 62.4972 15.5824C62.0997 16.171 61.5292 16.6098 60.7857 16.8989L63.2794 20.4614H61.111ZM61.0645 13.4759C61.0645 12.7841 60.8373 12.2523 60.383 11.8806C59.9287 11.5089 59.2626 11.323 58.3849 11.323H56.0307V15.6444H58.3849C59.2626 15.6444 59.9287 15.4559 60.383 15.079C60.8373 14.7021 61.0645 14.1678 61.0645 13.4759ZM66.524 9.61924H68.5376V20.4614H66.524V9.61924ZM77.7144 20.6162C76.6096 20.6162 75.6131 20.3762 74.7251 19.896C73.8371 19.4159 73.1401 18.7499 72.6341 17.898C72.1281 17.0461 71.8752 16.0935 71.8752 15.0403C71.8752 13.9871 72.1281 13.0345 72.6341 12.1826C73.1401 11.3307 73.8371 10.6647 74.7251 10.1846C75.6131 9.70443 76.6096 9.46436 77.7144 9.46436C78.8193 9.46436 79.8157 9.70443 80.7037 10.1846C81.5918 10.6647 82.2888 11.3282 82.7947 12.1749C83.3007 13.0216 83.5537 13.9767 83.5537 15.0403C83.5537 16.1039 83.3007 17.059 82.7947 17.9057C82.2888 18.7524 81.5918 19.4159 80.7037 19.896C79.8157 20.3762 78.8193 20.6162 77.7144 20.6162ZM77.7144 18.8505C78.4372 18.8505 79.0877 18.6879 79.666 18.3626C80.2442 18.0374 80.6986 17.583 81.029 16.9996C81.3594 16.4162 81.5246 15.7631 81.5246 15.0403C81.5246 14.3175 81.3594 13.6644 81.029 13.081C80.6986 12.4976 80.2442 12.0432 79.666 11.718C79.0877 11.3927 78.4372 11.2301 77.7144 11.2301C76.9916 11.2301 76.3411 11.3927 75.7628 11.718C75.1846 12.0432 74.7303 12.4976 74.3998 13.081C74.0694 13.6644 73.9042 14.3175 73.9042 15.0403C73.9042 15.7631 74.0694 16.4162 74.3998 16.9996C74.7303 17.583 75.1846 18.0374 75.7628 18.3626C76.3411 18.6879 76.9916 18.8505 77.7144 18.8505ZM96.5098 9.61924V20.4614H94.8525L88.8738 13.1197V20.4614H86.8758V9.61924H88.5331L94.5117 16.9609V9.61924H96.5098ZM100.606 9.61924H102.62V20.4614H100.606V9.61924ZM110.465 15.9232L108.745 17.6889V20.4614H106.732V9.61924H108.745V15.1797L114.105 9.61924H116.366L111.812 14.4672L116.645 20.4614H114.29L110.465 15.9232ZM127.2 17.9522H121.779L120.71 20.4614H118.635L123.514 9.61924H125.496L130.391 20.4614H128.284L127.2 17.9522ZM126.534 16.3723L124.489 11.6328L122.46 16.3723H126.534Z" fill="white"/>
<g id="Group">
<path id="Fill 1" fill-rule="evenodd" clip-rule="evenodd" d="M22.7922 0H10.5006C8.94462 0 7.50692 0.829994 6.72892 2.17754L0.583142 12.822C-0.194381 14.17 -0.194381 15.83 0.583142 17.1775L6.72892 27.822C7.50692 29.1695 8.94462 30 10.5006 30H22.7922C24.3482 30 25.7859 29.1695 26.5639 27.822L32.7096 17.1775C33.4876 15.83 33.4876 14.17 32.7096 12.822L26.5639 2.17754C25.7859 0.829994 24.3482 0 22.7922 0Z" fill="white"/>
<path id="Fill 4" fill-rule="evenodd" clip-rule="evenodd" d="M22.2655 15.8629L18.6293 22.1608C18.5043 22.3774 18.2725 22.5114 18.022 22.5114H13.085C12.7697 22.5114 12.5727 22.1699 12.7301 21.8966L14.4254 18.9606C14.4984 18.8337 14.4984 18.6772 14.4254 18.5508L12.6819 15.5304C12.4921 15.2022 12.4921 14.7977 12.6819 14.4695L14.4254 11.4491C14.4984 11.3222 14.4984 11.1663 14.4254 11.0394L12.7301 8.10291C12.5727 7.83006 12.7697 7.48853 13.085 7.48853H18.022C18.2725 7.48853 18.5043 7.62209 18.6293 7.83913L22.2655 14.1366C22.5737 14.6708 22.5737 15.3286 22.2655 15.8629Z" fill="#181818"/>
</g>
</g>
</svg>
