<svg width="68" height="48" viewBox="0 0 68 48" fill="none" xmlns="http://www.w3.org/2000/svg">
<g id="play button">
<path id="Subtract" opacity="0.4" fill-rule="evenodd" clip-rule="evenodd" d="M64.6109 3.57818C66.653 5.65091 67.3157 10.3527 67.3157 10.3527C67.3157 10.3527 68 15.8727 68 21.4036V26.5855C68 32.1055 67.3157 37.6255 67.3157 37.6255C67.3157 37.6255 66.653 42.3273 64.6109 44.4C62.2884 46.8402 59.7118 47.0971 58.2511 47.2427C58.0858 47.2592 57.9347 47.2743 57.8 47.2909C48.2843 47.9782 34 48 34 48C34 48 16.3157 47.8364 10.8843 47.3127C10.6263 47.2643 10.3131 47.2266 9.95819 47.184C8.2362 46.977 5.53265 46.6522 3.38914 44.4C1.34696 42.3273 0.684345 37.6255 0.684345 37.6255C0.684345 37.6255 0 32.1055 0 26.5855V21.4036C0 15.8727 0.673483 10.3527 0.673483 10.3527C0.673483 10.3527 1.3361 5.65091 3.37827 3.57818C5.70071 1.13801 8.27736 0.881098 9.73803 0.735455C9.90336 0.71897 10.0544 0.703911 10.1891 0.687273C19.7048 0 33.9783 0 33.9783 0H34.0109C34.0109 0 48.2843 0 57.8 0.687273C57.9347 0.703911 58.0858 0.71897 58.2511 0.735455C59.7118 0.881098 62.2884 1.13801 64.6109 3.57818ZM26.9829 32.8472V13.6691L45.3516 23.2909L26.9829 32.8472Z" fill="white"/>
</g>
</svg>
